<svg width="498" height="748" viewBox="0 0 498 748" fill="none" xmlns="http://www.w3.org/2000/svg">
<rect x="100" y="278" width="332" height="193" rx="25" stroke="black" stroke-width="10"/>
<path d="M231 70.75L301 140.25L266 175V36L301 70.75L231 140.25" stroke="black" stroke-width="10" stroke-linecap="round" stroke-linejoin="round"/>
<path d="M168.265 59H61.7347C56.3584 59 52 63.3547 52 68.7266V141.273C52 146.645 56.3584 151 61.7347 151H168.265C173.642 151 178 146.645 178 141.273V68.7266C178 63.3547 173.642 59 168.265 59Z" stroke="black" stroke-width="10" stroke-linejoin="round"/>
<path d="M42 156H188Z" fill="black"/>
<path d="M42 156H188" stroke="black" stroke-width="10" stroke-miterlimit="10" stroke-linecap="round"/>
<path d="M424.286 47H365.714C359.245 47 354 52.2383 354 58.7V152.3C354 158.762 359.245 164 365.714 164H424.286C430.755 164 436 158.762 436 152.3V58.7C436 52.2383 430.755 47 424.286 47Z" stroke="black" stroke-width="10" stroke-linecap="round" stroke-linejoin="round"/>
<path d="M395.333 151.333H395.417" stroke="black" stroke-width="10" stroke-linecap="round" stroke-linejoin="round"/>
<path d="M202 700V657.6C202 640.732 208.69 624.555 220.599 612.628C232.507 600.701 248.659 594 265.5 594C282.341 594 298.493 600.701 310.401 612.628C322.31 624.555 329 640.732 329 657.6V700" stroke="black" stroke-width="10" stroke-linecap="round" stroke-linejoin="round"/>
<path d="M329 707C329 710.713 327.513 714.274 324.867 716.899C322.221 719.525 318.631 721 314.889 721H307.833C304.091 721 300.502 719.525 297.855 716.899C295.209 714.274 293.722 710.713 293.722 707V686C293.722 682.287 295.209 678.726 297.855 676.101C300.502 673.475 304.091 672 307.833 672H329V707ZM202 707C202 710.713 203.487 714.274 206.133 716.899C208.779 719.525 212.369 721 216.111 721H223.167C226.909 721 230.498 719.525 233.145 716.899C235.791 714.274 237.278 710.713 237.278 707V686C237.278 682.287 235.791 678.726 233.145 676.101C230.498 673.475 226.909 672 223.167 672H202V707Z" stroke="black" stroke-width="10" stroke-linecap="round" stroke-linejoin="round"/>
<line x1="268.5" y1="485" x2="268.5" y2="575" stroke="black" stroke-width="5"/>
<line x1="117.5" y1="175" x2="117.5" y2="226" stroke="black" stroke-width="5"/>
<line x1="115" y1="223.5" x2="395" y2="223.5" stroke="black" stroke-width="5"/>
<line x1="397.5" y1="175" x2="397.5" y2="226" stroke="black" stroke-width="5"/>
<line x1="268.5" y1="188" x2="268.5" y2="264" stroke="black" stroke-width="5"/>
</svg>
